<svg width="30" height="30" viewBox="0 0 30 30" fill="none" xmlns="http://www.w3.org/2000/svg">
<circle cx="15" cy="15" r="14" stroke="#D8A3A3"/>
<path d="M18.2892 20.1059H11.7104C10.8013 20.1059 10.0586 19.3632 10.0586 18.4541V11.8753C10.0586 10.9662 10.8013 10.2235 11.7104 10.2235H18.2892C19.1982 10.2235 19.9409 10.9662 19.9409 11.8753V18.4541C19.9409 19.3672 19.2023 20.1059 18.2892 20.1059Z" stroke="#D8A3A3"/>
<path d="M13.208 16.9606C13.6869 17.4395 14.3241 17.7033 15.0019 17.7033C15.6796 17.7033 16.3128 17.4395 16.7957 16.9606C17.2746 16.4817 17.5384 15.8445 17.5384 15.1667C17.5384 14.489 17.2746 13.8518 16.7957 13.3729C16.3168 12.894 15.6796 12.6302 15.0019 12.6302C14.3241 12.6302 13.6869 12.894 13.208 13.3729C12.7291 13.8518 12.4653 14.489 12.4653 15.1667C12.4653 15.8445 12.7291 16.4817 13.208 16.9606Z" stroke="#D8A3A3"/>
<path d="M18.0329 12.5468C18.3019 12.5468 18.52 12.3288 18.52 12.0598C18.52 11.7908 18.3019 11.5728 18.0329 11.5728C17.7639 11.5728 17.5459 11.7908 17.5459 12.0598C17.5459 12.3288 17.7639 12.5468 18.0329 12.5468Z" fill="#D8A3A3"/>
</svg>
