<svg width="30" height="30" viewBox="0 0 30 30" fill="none" xmlns="http://www.w3.org/2000/svg">
<circle cx="15" cy="15" r="14" stroke="#D8A3A3"/>
<path fill-rule="evenodd" clip-rule="evenodd" d="M14.1488 17.2796C14.5138 17.2914 14.8435 17.7741 15.8089 17.7741C17.622 17.7859 18.87 16.3966 19.2586 14.5717C20.6125 8.24931 11.3938 7.74305 10.4519 12.947C10.2282 14.1714 10.5932 15.5842 11.5469 16.0434C12.2768 16.3966 12.3239 15.3841 12.1002 14.9485C11.1113 13.0176 12.3004 11.2751 13.8545 10.7806C15.3144 10.3097 16.3505 10.6982 17.1393 11.5106C18.1518 12.5584 17.6927 15.4076 16.4918 16.3142C16.0679 16.6321 15.2909 16.7027 14.8906 16.326C14.0664 15.5607 15.338 13.9359 15.1496 12.7468C14.9612 11.5695 13.101 11.7461 13.0068 13.4768C12.9597 14.3598 13.2187 14.6188 13.0186 15.5018C12.7007 16.9147 11.7353 19.7992 12.4181 20.9294C13.4189 20.4585 13.9134 17.6328 14.1488 17.2796Z" stroke="#D8A3A3"/>
</svg>
