<svg width="30" height="30" viewBox="0 0 30 30" fill="none" xmlns="http://www.w3.org/2000/svg">
<circle cx="15" cy="15" r="14" stroke="#D8A3A3"/>
<path d="M20.4595 10C20.8293 10 21.1082 10.3222 20.959 10.9215L19.149 19.3954C19.0225 19.9979 18.6559 20.1429 18.1499 19.8626L13.8324 16.6953C13.8157 16.6834 13.8021 16.6677 13.7927 16.6495C13.7832 16.6313 13.7783 16.6111 13.7783 16.5906C13.7783 16.5701 13.7832 16.55 13.7927 16.5318C13.8021 16.5136 13.8157 16.4978 13.8324 16.4859L18.8181 12.0138C19.0452 11.814 18.7695 11.7173 18.471 11.8978L12.2138 15.8189C12.1948 15.8312 12.1733 15.8391 12.1508 15.8419C12.1283 15.8447 12.1055 15.8423 12.0841 15.8351L9.42741 15.0006C8.83705 14.8298 8.83705 14.427 9.56041 14.1403L20.1902 10.0677C20.2746 10.0278 20.3661 10.0048 20.4595 10Z" stroke="#D8A3A3" stroke-linecap="round" stroke-linejoin="round"/>
</svg>
