<svg width="30" height="30" viewBox="0 0 30 30" fill="none" xmlns="http://www.w3.org/2000/svg">
<circle cx="15" cy="15" r="14" stroke="#D8A3A3"/>
<path d="M17.4027 9.83861L17.1245 9.40002H15.4412V13.3502L15.4355 17.2086C15.4384 17.2373 15.4412 17.2688 15.4412 17.2975C15.4412 18.2635 14.6555 19.0518 13.6862 19.0518C12.7169 19.0518 11.9312 18.2664 11.9312 17.2975C11.9312 16.3314 12.7169 15.5431 13.6862 15.5431C13.8869 15.5431 14.0819 15.5804 14.2626 15.6434V13.7171C14.0762 13.6856 13.8841 13.6684 13.6862 13.6684C11.6874 13.6712 10.0586 15.2995 10.0586 17.3003C10.0586 19.3012 11.6874 20.9294 13.6891 20.9294C15.6907 20.9294 17.3196 19.3012 17.3196 17.3003V12.7109C18.0451 13.4362 18.9828 14.1442 20.0209 14.3707V12.4013C18.8939 11.9026 17.7726 10.4291 17.4027 9.83861Z" stroke="#D8A3A3"/>
</svg>
