<svg width="30" height="30" viewBox="0 0 30 30" fill="none" xmlns="http://www.w3.org/2000/svg">
<circle cx="15" cy="15" r="14" stroke="#D8A3A3"/>
<path d="M20.3726 12.7171C20.0796 12.0697 19.6591 11.4885 19.1251 10.9877C18.5912 10.4915 17.9722 10.0993 17.2823 9.82529C16.5688 9.54178 15.8128 9.40002 15.0331 9.40002C14.2535 9.40002 13.4975 9.54178 12.784 9.82529C12.0941 10.0993 11.4751 10.4868 10.9411 10.9877C10.4072 11.4885 9.98666 12.0697 9.6937 12.7171C9.39129 13.3881 9.23535 14.1063 9.23535 14.8434C9.23535 16.1334 9.71731 17.3714 10.6009 18.3542L10.1284 20.9294L12.6422 19.8096C13.3935 20.1309 14.1921 20.2915 15.0284 20.2915C15.8081 20.2915 16.5641 20.1498 17.2776 19.8663C17.9675 19.5922 18.5865 19.2047 19.1204 18.7039C19.6544 18.203 20.0749 17.6218 20.3679 16.9745C20.6703 16.3035 20.8262 15.5853 20.8262 14.8481C20.8309 14.1063 20.675 13.3928 20.3726 12.7171Z" stroke="#D8A3A3"/>
<path d="M17.3862 15.9302C17.1405 15.8073 16.9609 15.7317 16.8333 15.6845C16.753 15.6561 16.564 15.5711 16.4979 15.6231C16.2899 15.7932 16.0679 16.2751 15.8316 16.3649C15.2457 16.2515 14.7023 15.8499 14.277 15.4388C14.088 15.2592 13.7384 14.7489 13.6628 14.6119C13.6486 14.4701 13.9037 14.2811 13.9604 14.1724C14.2534 13.8417 14.0313 13.6338 13.9935 13.4967C13.9274 13.355 13.814 13.0998 13.7147 12.8919C13.6297 12.7549 13.6108 12.5517 13.4596 12.4761C12.8169 12.1453 12.4484 12.8069 12.2972 13.1518C11.3852 15.349 16.8664 19.5308 17.9816 16.6484C18.0383 16.398 18.0146 16.3035 17.9296 16.1901C17.7595 16.0719 17.561 16.02 17.3862 15.9302Z" stroke="#D8A3A3"/>
</svg>
