<svg width="600" height="225" viewBox="0 0 600 225" fill="none" xmlns="http://www.w3.org/2000/svg">
<path fill-rule="evenodd" clip-rule="evenodd" d="M262.09 86.7601C253.678 85.9949 253.482 94.0917 248.342 98.9988C244.509 102.658 240.524 105.116 245.2 110.215C251.026 116.568 252.795 109.552 256.801 105.234C259.101 102.755 261.641 99.2384 265.667 98.323C265.275 98.7192 265.251 98.7589 264.667 99.2121C262.303 101.048 259.575 103.026 257.624 105.501C255.961 107.61 252.138 111.787 251.115 113.892C243.778 112.855 242.813 106.882 240.991 106.282C238.343 105.409 231.477 112.904 229.529 114.425L215.679 127.062C214.4 128.396 213.428 128.89 212.063 130.085L198.23 142.744C193.909 147.401 188.526 150.862 184.424 155.446C180.102 160.277 175.429 163.715 170.973 168.484C166.904 172.837 162.119 177.544 158.339 182.356C157.27 183.717 156.367 184.573 155.305 185.946C154.264 187.292 153.209 188.49 152.316 189.583C147.336 195.679 138.69 206.313 137.213 214.295C135.19 225.228 147.254 221.688 152.598 218.561C158.295 215.229 162.93 211.57 167.552 207.013C174.139 200.517 181.213 193.997 187.148 186.853C188.211 185.574 189.075 184.441 190.206 183.275L199.829 173.037C207.3 163.9 220.566 151.139 228.164 141.742C231.048 138.175 234.881 134.912 237.633 131.345L244.564 124.074C242.782 126.943 241.606 127.739 239.726 130.11L220.038 152.949C217.653 155.435 217.106 156.501 214.828 158.771L173.896 203.959C166.646 211.027 158.943 218.181 148.846 221.944C143.05 224.104 134.818 223.192 128.375 223.192C87.8212 223.191 44.9776 223.829 4.61705 223.168C2.22316 223.129 1.10677 222.616 0 224.15C0.772518 224.559 -0.0359352 224.353 1.38273 224.611C5.75993 225.408 120.957 224.733 124.508 224.733C141.435 224.733 149.117 226.291 162.246 216.057C163.897 214.769 164.919 213.918 166.567 212.646C170.984 209.237 175.067 205.267 178.763 201.096L248.742 122.025C249.702 120.904 251.486 118.906 252.179 117.682C254.089 114.312 251.391 115.691 253.765 112.733C256.998 108.703 260.832 103.368 265.451 100.643C270.449 97.6947 272.093 99.6668 275.749 102.341C281.929 106.861 290.113 109.308 299.294 110.2C320.91 112.299 334.076 102.109 343.258 91.5461C355.265 91.8381 380.027 101.409 389.749 107.646C400.909 114.806 414.318 127.046 410.251 147.678C405.066 148.711 399.281 143.772 389.541 150.089C386.23 152.236 378.153 159.697 381.613 166.513C384.847 172.886 396.085 168.38 400.42 165.389C406.018 161.526 407.889 157.55 411.252 150.421C423.775 154.354 436.856 170.679 443.73 181.18C447.845 187.466 451.866 194.676 456.375 200.547C461.073 206.665 465.575 211.047 476.413 212.484C495.279 214.986 517.807 214.965 537.133 215.165C557.012 215.371 576.989 215.849 596.872 215.305C599.786 215.225 599.202 215.744 600 214.121C597.824 213.144 544.943 213.727 537.15 213.606C517.565 213.304 495.542 213.502 476.436 210.938C465.943 209.529 461.388 204.855 457.03 198.799C444.775 181.77 439.098 167.648 421.707 154.618C418.315 152.077 415.303 150.941 411.768 148.563C414.32 128.978 407.462 116.932 391.238 106.703C385.188 102.888 377.542 99.1549 369.864 96.609C361.318 93.7749 353.084 92.4402 344.629 89.8692C348.256 82.1136 353.161 79.5926 355.388 62.4923C356.924 50.7051 354.644 39.2355 350.106 29.7267C331.46 -9.34083 270.933 -10.3917 252.203 29.4866C245.962 42.7737 243.991 63.5456 251.077 77.8713C255.165 86.1376 255.891 83.308 262.09 86.7601Z" fill="#D8A3A3"/>
<path fill-rule="evenodd" clip-rule="evenodd" d="M304.922 83.4575C298.804 80.3388 295.274 79.8372 290.284 75.683C286.485 72.5204 281.636 68.529 279.871 63.4588C277.34 56.1861 280.987 49.9866 284.897 47.2294C290.947 42.9619 296.109 43.7335 301.893 46.9024C308.171 34.0969 325.546 37.3497 326.273 53.0915C326.703 62.4088 322.072 72.0018 316.174 77.9246C314.301 79.8049 312.018 81.2325 309.8 83.0311C312.312 84.4651 331.12 87.83 334.972 87.9967C340.283 82.4108 345.463 69.5711 346.495 59.7509C347.876 46.6026 345.247 35.7484 338.979 27.0406C321.764 3.12635 278.353 -0.403774 260.398 29.9334C249.238 48.7892 252.339 80.6057 271.18 85.9061C280.315 88.476 299.294 88.6234 304.922 83.4575Z" fill="white"/>
<path fill-rule="evenodd" clip-rule="evenodd" d="M139.28 219.363C151.419 224.257 169.609 202.061 175.263 197.045C177.053 195.457 177.259 195.363 178.607 193.775C184.021 187.399 193.386 178.256 198.217 172.537L249.313 115.458C244.334 112.449 243.196 113.134 240.545 107.807C238.179 108.663 231.753 114.373 229.418 116.528C217.362 127.653 202.755 140.293 191.416 151.381C184.845 157.807 177.746 163.38 170.756 171.03L164.333 177.85C157.627 186.353 135.808 208.355 139.28 219.363Z" fill="white"/>
<path fill-rule="evenodd" clip-rule="evenodd" d="M304.281 58.7789C299.178 58.3865 300.507 52.5237 301.195 48.6313C290.532 39.751 273.745 53.7975 283.448 66.5043C289.51 74.4424 294.226 77.2544 303.523 81.1932C308.041 83.1073 308.436 82.1115 311.733 79.563C315.691 76.5046 319.343 72.5769 321.981 66.6187C330.029 48.4429 319.335 35.4623 307.292 42.5643C305.702 43.502 302.603 46.6223 303.454 49.2921C304.789 53.4789 305.992 54.059 304.281 58.7789Z" fill="white"/>
<path fill-rule="evenodd" clip-rule="evenodd" d="M268.681 87.3754L268.382 86.6363C265.629 85.5798 264.639 85.0625 262.878 83.1862C260.881 81.0588 260.682 81.0938 258.939 78.2923C250.722 65.0901 250.1 49.3149 255.922 35.4149C262.064 20.7514 277.28 6.61921 298.514 6.47942C339.897 6.2074 358.015 43.1774 343.546 76.5566C340.662 83.2116 339.045 84.5538 337.196 88.4231L342.873 89.6177C348.406 81.0807 352.091 74.8893 353.921 62.0217C358.168 32.146 336.198 0.0441049 298.508 1.56479C275.005 2.5131 259.031 16.455 252.199 33.3308C246.805 46.652 246.601 70.5443 254.599 80.971C257.021 84.129 263.897 85.4048 268.681 87.3754Z" fill="white"/>
<path fill-rule="evenodd" clip-rule="evenodd" d="M268.382 86.6363L268.681 87.3754L271.153 89.7941C274.456 92.4851 277.109 94.9917 281.343 97.2959C293.351 103.831 306.874 104.397 319.344 99.2914C325.481 96.7782 330.206 93.963 333.547 89.384C324.993 88.5792 317.834 86.6926 309.781 84.7955C306.506 84.0239 305.151 85.4443 302.165 86.5303C290.991 90.5947 279.601 90.0194 268.382 86.6363Z" fill="white"/>
<path fill-rule="evenodd" clip-rule="evenodd" d="M262.09 86.7601C270.936 93.2911 269.395 87.4168 272.092 98.1445C277.477 100.681 277.255 103.243 288.134 106.514C307.311 112.281 324.581 108.288 338.241 94.4435L341.167 91.1817C333.836 87.6648 336.159 92.6368 323.498 99.0413C307.658 107.054 289.345 105.738 275.209 95.1506C271.597 92.4449 267.058 87.0378 262.09 86.7601Z" fill="white"/>
<path fill-rule="evenodd" clip-rule="evenodd" d="M409.626 149.563C401.659 148.054 397.135 147.316 390.384 151.492C387.764 153.112 379.712 160.377 383.186 166.051C386.811 171.972 405.956 165.338 409.626 149.563Z" fill="white"/>
<path fill-rule="evenodd" clip-rule="evenodd" d="M248.798 111.324C255.103 109.059 256.423 95.7327 270.306 96.8844C269.83 92.4037 266.424 90.6539 262.634 88.9249C255.954 85.8776 257.899 91.7233 246.755 102.388C242.28 106.67 245.941 108.624 248.798 111.324Z" fill="white"/>
</svg>
