<svg width="28" height="28" viewBox="0 0 28 28" fill="none" xmlns="http://www.w3.org/2000/svg">
<circle cx="14" cy="14" r="14" fill="#D8A3A3"/>
<path d="M17.2892 18.9412H10.7104C9.80129 18.9412 9.05859 18.1985 9.05859 17.2894V10.7106C9.05859 9.80154 9.80129 9.05884 10.7104 9.05884H17.2892C18.1982 9.05884 18.9409 9.80154 18.9409 10.7106V17.2894C18.9409 18.2026 18.2023 18.9412 17.2892 18.9412Z" fill="white"/>
<path d="M14.0019 16.5385C13.3241 16.5385 12.6869 16.2747 12.208 15.7958C11.7291 15.3169 11.4653 14.6798 11.4653 14.002C11.4653 13.3242 11.7291 12.6871 12.208 12.2082C12.6869 11.7293 13.3241 11.4655 14.0019 11.4655C14.6796 11.4655 15.3168 11.7293 15.7957 12.2082C16.2746 12.6871 16.5384 13.3242 16.5384 14.002C16.5384 14.6798 16.2746 15.3169 15.7957 15.7958C15.3128 16.2747 14.6796 16.5385 14.0019 16.5385ZM14.0019 12.0052C12.902 12.0052 12.0051 12.8981 12.0051 14.002C12.0051 15.1018 12.898 15.9988 14.0019 15.9988C15.1017 15.9988 15.9986 15.1059 15.9986 14.002C15.9946 12.9021 15.1017 12.0052 14.0019 12.0052Z" fill="#D8A3A3"/>
<path d="M17.0329 11.3821C17.3019 11.3821 17.52 11.1641 17.52 10.8951C17.52 10.6261 17.3019 10.4081 17.0329 10.4081C16.7639 10.4081 16.5459 10.6261 16.5459 10.8951C16.5459 11.1641 16.7639 11.3821 17.0329 11.3821Z" fill="#D8A3A3"/>
</svg>
