<svg width="28" height="28" viewBox="0 0 28 28" fill="none" xmlns="http://www.w3.org/2000/svg">
<circle cx="14" cy="14" r="14" fill="#D8A3A3"/>
<path fill-rule="evenodd" clip-rule="evenodd" d="M13.1488 16.1149C13.5138 16.1267 13.8435 16.6094 14.8089 16.6094C16.622 16.6212 17.87 15.2319 18.2586 13.407C19.6125 7.08458 10.3938 6.57832 9.45194 11.7822C9.22824 13.0067 9.59322 14.4195 10.5469 14.8787C11.2768 15.2319 11.3239 14.2194 11.1002 13.7837C10.1113 11.8529 11.3004 10.1104 12.8545 9.61589C14.3144 9.14495 15.3505 9.53348 16.1393 10.3459C17.1518 11.3937 16.6927 14.2429 15.4918 15.1495C15.0679 15.4674 14.2909 15.538 13.8906 15.1612C13.0664 14.396 14.338 12.7712 14.1496 11.5821C13.9612 10.4047 12.101 10.5813 12.0068 12.312C11.9597 13.1951 12.2187 13.4541 12.0186 14.3371C11.7007 15.7499 10.7353 18.6344 11.4181 19.7647C12.4189 19.2938 12.9134 16.4681 13.1488 16.1149Z" fill="white"/>
</svg>
