<svg width="28" height="28" viewBox="0 0 28 28" fill="none" xmlns="http://www.w3.org/2000/svg">
<circle cx="14" cy="14" r="14" fill="#D8A3A3"/>
<path d="M19.4595 9C19.8293 9 20.1082 9.3222 19.959 9.92149L18.149 18.3954C18.0225 18.9979 17.6559 19.1429 17.1499 18.8626L12.8324 15.6953C12.8157 15.6834 12.8021 15.6677 12.7927 15.6495C12.7832 15.6313 12.7783 15.6111 12.7783 15.5906C12.7783 15.5701 12.7832 15.55 12.7927 15.5318C12.8021 15.5136 12.8157 15.4978 12.8324 15.4859L17.8181 11.0138C18.0452 10.814 17.7695 10.7173 17.471 10.8978L11.2138 14.8189C11.1948 14.8312 11.1733 14.8391 11.1508 14.8419C11.1283 14.8447 11.1055 14.8423 11.0841 14.8351L8.42741 14.0006C7.83705 13.8298 7.83705 13.427 8.56041 13.1403L19.1902 9.06766C19.2746 9.02781 19.3661 9.00482 19.4595 9Z" fill="white"/>
</svg>
