<svg width="28" height="28" viewBox="0 0 28 28" fill="none" xmlns="http://www.w3.org/2000/svg">
<circle cx="14" cy="14" r="14" fill="#D8A3A3"/>
<path d="M16.4027 8.67388L16.1245 8.23529H14.4412V12.1854L14.4355 16.0439C14.4384 16.0725 14.4412 16.1041 14.4412 16.1327C14.4412 17.0988 13.6555 17.8871 12.6862 17.8871C11.7169 17.8871 10.9312 17.1016 10.9312 16.1327C10.9312 15.1667 11.7169 14.3784 12.6862 14.3784C12.8869 14.3784 13.0819 14.4157 13.2626 14.4787V12.5524C13.0762 12.5208 12.8841 12.5036 12.6862 12.5036C10.6874 12.5065 9.05859 14.1347 9.05859 16.1356C9.05859 18.1365 10.6874 19.7647 12.6891 19.7647C14.6907 19.7647 16.3196 18.1365 16.3196 16.1356V11.5462C17.0451 12.2714 17.9828 12.9795 19.0209 13.206V11.2366C17.8939 10.7378 16.7726 9.2644 16.4027 8.67388Z" fill="white"/>
</svg>
