<svg width="28" height="28" viewBox="0 0 28 28" fill="none" xmlns="http://www.w3.org/2000/svg">
<circle cx="14" cy="14" r="14" fill="#D8A3A3"/>
<path d="M19.3726 11.5524C19.0796 10.905 18.6591 10.3238 18.1251 9.82295C17.5912 9.3268 16.9722 8.93462 16.2823 8.66056C15.5688 8.37705 14.8128 8.23529 14.0331 8.23529C13.2535 8.23529 12.4975 8.37705 11.784 8.66056C11.0941 8.93462 10.4751 9.32208 9.94114 9.82295C9.4072 10.3238 8.98666 10.905 8.6937 11.5524C8.39129 12.2233 8.23535 12.9416 8.23535 13.6787C8.23535 14.9687 8.71731 16.2066 9.60092 17.1895L9.1284 19.7647L11.6422 18.6448C12.3935 18.9661 13.1921 19.1268 14.0284 19.1268C14.8081 19.1268 15.5641 18.985 16.2776 18.7015C16.9675 18.4275 17.5865 18.04 18.1204 17.5391C18.6544 17.0383 19.0749 16.4571 19.3679 15.8097C19.6703 15.1388 19.8262 14.4205 19.8262 13.6834C19.8309 12.9416 19.675 12.2281 19.3726 11.5524Z" fill="white"/>
<path d="M16.3862 14.7654C16.1405 14.6425 15.9609 14.5669 15.8333 14.5197C15.753 14.4913 15.564 14.4063 15.4979 14.4583C15.2899 14.6284 15.0679 15.1103 14.8316 15.2001C14.2457 15.0867 13.7023 14.6851 13.277 14.274C13.088 14.0944 12.7384 13.5841 12.6628 13.4471C12.6486 13.3053 12.9037 13.1163 12.9604 13.0076C13.2534 12.6769 13.0313 12.469 12.9935 12.3319C12.9274 12.1902 12.814 11.935 12.7147 11.7271C12.6297 11.5901 12.6108 11.3869 12.4596 11.3113C11.8169 10.9805 11.4484 11.6421 11.2972 11.987C10.3852 14.1842 15.8664 18.366 16.9816 15.4836C17.0383 15.2332 17.0146 15.1387 16.9296 15.0253C16.7595 14.9072 16.561 14.8552 16.3862 14.7654Z" fill="#D8A3A3"/>
</svg>
