<svg width="40" height="40" viewBox="0 0 40 40" fill="none" xmlns="http://www.w3.org/2000/svg">
<path fill-rule="evenodd" clip-rule="evenodd" d="M28.3332 4.58331C24.4212 4.58331 21.2499 7.75463 21.2499 11.6666C21.2499 12.802 21.5162 13.8716 21.9884 14.8197C22.2534 15.3518 22.3632 16.0037 22.1884 16.6569L21.7666 18.2333L23.3431 17.8115C23.9962 17.6368 24.6481 17.7465 25.1802 18.0115C26.1284 18.4838 27.1979 18.75 28.3332 18.75C32.2452 18.75 35.4166 15.5787 35.4166 11.6666C35.4166 7.75463 32.2452 4.58331 28.3332 4.58331ZM18.7499 11.6666C18.7499 6.37391 23.0406 2.08331 28.3332 2.08331C33.6261 2.08331 37.9166 6.37391 37.9166 11.6666C37.9166 16.9593 33.6261 21.25 28.3332 21.25C26.8026 21.25 25.3522 20.8901 24.0656 20.2493C24.0367 20.235 24.0136 20.2293 23.9996 20.2276C23.9931 20.2268 23.9876 20.227 23.9876 20.227L22.1342 20.723C20.3997 21.187 18.8129 19.6001 19.2771 17.8658L19.7729 16.0124C19.7729 16.0124 19.7731 16.0069 19.7722 16.0003C19.7706 15.9863 19.7649 15.9631 19.7506 15.9343C19.1097 14.6477 18.7499 13.1974 18.7499 11.6666ZM6.19608 6.8202C8.23971 4.66863 11.6201 5.07173 13.3094 7.46103L15.411 10.4335C16.7622 12.3446 16.6481 15.0016 15.0355 16.6993L14.6274 17.129C14.6263 17.132 14.6251 17.1351 14.6238 17.1386C14.6023 17.1993 14.5477 17.3923 14.6014 17.7585C14.7127 18.5176 15.2987 20.0605 17.6782 22.5656C20.0651 25.0786 21.5129 25.6708 22.1837 25.7798C22.4732 25.8268 22.6246 25.786 22.6729 25.769L23.3539 25.052C24.8102 23.5188 27.0807 23.2166 28.9116 24.2705L32.0957 26.1033C34.8172 27.6698 35.4507 31.5016 33.2757 33.7915L30.9082 36.2841C30.1692 37.0621 29.1616 37.7261 27.9166 37.8491C24.8767 38.1491 17.8349 37.7583 10.4526 29.9861C3.56398 22.7338 2.25534 16.4256 2.08993 13.3435C2.00819 11.8207 2.68698 10.5146 3.58006 9.57435L6.19608 6.8202ZM11.2681 8.90431C10.4142 7.69656 8.88011 7.6245 8.00871 8.54191L5.39271 11.2961C4.84039 11.8775 4.55061 12.544 4.58633 13.2095C4.72139 15.7259 5.80503 21.463 12.2652 28.2645C19.0389 35.3958 25.2792 35.5973 27.6709 35.3611C28.1439 35.3145 28.6304 35.0521 29.0956 34.5625L31.4631 32.0698C32.4844 30.9946 32.2167 29.0575 30.8486 28.27L27.6644 26.4371C26.8099 25.9453 25.8089 26.0973 25.1666 26.7736L24.4074 27.5728L24.4052 27.5753L24.4027 27.5778L24.3979 27.5828L24.3872 27.5936L24.3634 27.6171C24.3462 27.6338 24.3264 27.6521 24.3041 27.6718C24.2592 27.711 24.2037 27.7558 24.1372 27.8031C24.0036 27.8978 23.8257 28.002 23.6009 28.0906C23.1409 28.272 22.5334 28.3693 21.7831 28.2475C20.3204 28.01 18.4036 26.9595 15.8655 24.2873C13.3199 21.6073 12.3457 19.6078 12.1278 18.121C12.0169 17.3641 12.1057 16.7581 12.2685 16.3005C12.3486 16.0755 12.4431 15.896 12.5303 15.7598C12.5738 15.6918 12.6153 15.6349 12.6519 15.5886C12.6702 15.5655 12.6873 15.545 12.7029 15.5271L12.7251 15.5021L12.7353 15.491L12.7402 15.4858L12.7425 15.4833C12.7425 15.4833 12.1843 14.8989 13.0906 15.7598L12.7448 15.4809L13.2228 14.9776C13.9654 14.1959 14.0733 12.8719 13.3697 11.8768L11.2681 8.90431Z" fill="#333333" stroke="#FDFAFA"/>
</svg>
