<svg width="41" height="40" viewBox="0 0 41 40" fill="none" xmlns="http://www.w3.org/2000/svg">
<g clip-path="url(#clip0_176_4286)">
<path d="M33.4919 7.34729H26.3433V0.736248C26.3433 0.491453 26.2216 0.262558 26.0183 0.125634C25.8154 -0.0112909 25.5575 -0.0380869 25.3303 0.0540795L7.27334 7.34729C7.1428 7.4002 7.02815 7.49649 6.94148 7.61359C6.83567 7.74109 6.77197 7.90481 6.77197 8.08345V39.2639C6.77197 39.6706 7.10148 40.0001 7.50813 40.0001H33.4919C33.8985 40.0001 34.228 39.6706 34.228 39.2639V8.08345C34.228 7.6768 33.8985 7.34729 33.4919 7.34729ZM24.871 1.82958V7.34729H11.2789L24.871 1.82958ZM32.7557 38.5278H8.24438V8.8196H32.7558V38.5278H32.7557Z" fill="#333333"/>
<path d="M15.4283 22.617C15.0832 21.7622 15.096 20.9208 15.4643 20.2478C15.7576 19.7114 16.2602 19.3297 16.8085 19.2268C17.2082 19.1517 17.4712 18.7667 17.3961 18.3672C17.3207 17.9677 16.9358 17.7049 16.5364 17.7799C15.5446 17.9664 14.683 18.6082 14.1725 19.541C13.5886 20.6083 13.5496 21.8963 14.0628 23.1679C14.1787 23.4547 14.4545 23.6287 14.7459 23.6287C14.8376 23.6287 14.9309 23.6115 15.021 23.5751C15.3981 23.4229 15.5805 22.9939 15.4283 22.617Z" fill="#333333"/>
<path d="M20.1559 31.9993C20.2637 32.0564 20.382 32.0848 20.5002 32.0848C20.6187 32.0848 20.737 32.0564 20.8447 31.9993C24.4185 30.1076 26.9882 27.9665 28.4821 25.636C30.1157 23.0872 30.0618 20.9549 29.7289 19.6148C29.1026 17.0932 26.8921 15.2627 24.4727 15.2627C22.9555 15.2627 21.5743 15.9515 20.5001 17.224C19.426 15.9514 18.0447 15.2627 16.5276 15.2627C14.1079 15.2627 11.8971 17.0931 11.2707 19.615C10.9379 20.955 10.8842 23.0872 12.518 25.6358C14.0121 27.9663 16.5817 30.1074 20.1559 31.9993ZM12.6999 19.97C13.1653 18.0954 14.7753 16.7351 16.5277 16.7351C17.831 16.7351 19.0201 17.4914 19.8754 18.8647C20.0098 19.0806 20.2459 19.2117 20.5001 19.2117C20.7543 19.2117 20.9907 19.0806 21.1251 18.8647C21.9805 17.4914 23.1694 16.7351 24.4726 16.7351C26.2248 16.7351 27.8344 18.0954 28.2998 19.9698C28.6259 21.283 29.0095 25.8831 20.5 30.5132C11.9904 25.8829 12.3738 21.283 12.6999 19.97Z" fill="#333333"/>
</g>
<defs>
<clipPath id="clip0_176_4286">
<rect width="40" height="40" fill="white" transform="translate(0.5)"/>
</clipPath>
</defs>
</svg>
