<svg width="40" height="40" viewBox="0 0 40 40" fill="none" xmlns="http://www.w3.org/2000/svg">
<g clip-path="url(#clip0_40_683)">
<path d="M40 6L40 33.0102L0 33.0102L0 6L40 6ZM4.73734 8.60875L14.1951 17.0081C15.0066 15.9834 16.2603 15.3242 17.6659 15.3242C18.4981 15.3242 19.3057 15.5596 20 15.9905C20.6944 15.5595 21.5019 15.3242 22.3341 15.3242C23.7396 15.3242 24.9934 15.9834 25.8049 17.0081L35.2627 8.60875L4.73734 8.60875ZM15.8475 19.7513C15.8475 20.6714 16.8731 21.9312 18.8961 23.4958C19.2385 23.7606 19.6534 24.053 20 24.2904C20.3466 24.053 20.7616 23.7606 21.1039 23.4958C23.1268 21.9312 24.1525 20.6714 24.1525 19.7513C24.1525 18.7487 23.3368 17.9329 22.3341 17.9329C21.8157 17.9329 21.3202 18.1558 20.9748 18.5444L20 19.6408L19.0252 18.5444C18.6798 18.1558 18.1843 17.9329 17.6659 17.9329C16.6632 17.9329 15.8475 18.7487 15.8475 19.7513ZM37.3913 10.2073L26.7586 19.6501C26.7594 19.6839 26.7612 19.7174 26.7612 19.7514C26.7612 19.9362 26.7465 20.1185 26.7211 20.2986L37.3913 28.9659L37.3913 10.2073ZM35.0211 30.4016L25.6171 22.7627C24.8191 23.8313 23.7192 24.7709 22.6999 25.5591C21.879 26.1941 20.7574 26.9232 20.7101 26.9539L19.9999 27.4148L19.2898 26.9539C19.2425 26.9232 18.1209 26.1941 17.2999 25.5591C16.2806 24.7708 15.1807 23.8312 14.3827 22.7627L4.97875 30.4016L35.0211 30.4016ZM2.60867 28.966L13.2789 20.2985C13.2535 20.1184 13.2388 19.9362 13.2388 19.7513C13.2388 19.7174 13.2406 19.6838 13.2414 19.6501L2.60867 10.2072L2.60867 28.966Z" fill="#333333" stroke="#FDFAFA"/>
</g>
<defs>
<clipPath id="clip0_40_683">
<rect width="40" height="40" fill="white" transform="matrix(1 0 0 -1 0 40)"/>
</clipPath>
</defs>
</svg>
