<svg width="16" height="11" viewBox="0 0 16 11" fill="none" xmlns="http://www.w3.org/2000/svg">
<path d="M14.8247 0.245117H1.17532C0.863605 0.245117 0.564658 0.368945 0.344243 0.58936C0.123828 0.809775 0 1.10872 0 1.42044V9.57976C0 9.89147 0.123828 10.1904 0.344243 10.4108C0.564658 10.6312 0.863605 10.7551 1.17532 10.7551H14.8247C15.1364 10.7551 15.4353 10.6312 15.6558 10.4108C15.8762 10.1904 16 9.89147 16 9.57976V1.42044C16 1.10872 15.8762 0.809775 15.6558 0.58936C15.4353 0.368945 15.1364 0.245117 14.8247 0.245117ZM15.0545 1.60326L8.14887 5.46875C8.10873 5.49018 8.06378 5.50097 8.01828 5.5001H7.98172C7.93109 5.50227 7.88075 5.49148 7.83546 5.46875L0.950702 1.60326C0.887997 1.569 0.84132 1.5114 0.820787 1.44296C0.800254 1.37451 0.807518 1.30073 0.841006 1.23761C0.858418 1.20632 0.881845 1.17878 0.909941 1.15657C0.938037 1.13437 0.970245 1.11794 1.00471 1.10823C1.03918 1.09852 1.07523 1.09572 1.11079 1.1C1.14634 1.10427 1.1807 1.11553 1.21188 1.13314L8.00261 4.9046L14.7933 1.13314C14.8245 1.11553 14.8589 1.10427 14.8944 1.1C14.93 1.09572 14.966 1.09852 15.0005 1.10823C15.035 1.11794 15.0672 1.13437 15.0953 1.15657C15.1234 1.17878 15.1468 1.20632 15.1642 1.23761C15.1815 1.26871 15.1924 1.30296 15.1962 1.33834C15.2001 1.37372 15.1968 1.4095 15.1865 1.44358C15.1763 1.47767 15.1594 1.50936 15.1367 1.53678C15.114 1.56421 15.0861 1.58681 15.0545 1.60326Z" fill="#D8A3A3"/>
</svg>
