<svg width="16" height="15" viewBox="0 0 16 15" fill="none" xmlns="http://www.w3.org/2000/svg">
<path d="M15.9273 10.9121C15.6835 10.7204 15.4159 10.5611 15.1312 10.4381C14.8578 10.3044 12.8465 9.31999 12.4697 9.18023C12.093 9.04047 11.7831 8.93109 11.4549 9.4233C11.2058 9.79397 10.4705 10.6386 10.2396 10.9121C10.0087 11.1855 9.92362 11.1673 9.55295 10.9789C8.44249 10.4919 7.40225 9.85833 6.45998 9.09516C5.62444 8.32618 4.90769 7.43742 4.33318 6.45793C4.16303 6.17233 4.27241 6.03865 4.48509 5.85027C4.69777 5.6619 5.17174 4.99955 5.22036 4.93271C5.26897 4.86587 5.4695 4.46481 5.4695 4.46481C5.53439 4.34327 5.56834 4.20762 5.56834 4.06984C5.56834 3.93206 5.53439 3.7964 5.4695 3.67486C5.40265 3.54725 4.37571 1.06801 4.25418 0.831022C3.95035 0.10791 3.64652 0.10791 3.33662 0.10791C3.19078 0.10791 1.82355 0.10791 1.39212 0.606189L1.31312 0.715567C0.889043 1.12768 0.553816 1.62225 0.328086 2.16881C0.102356 2.71537 -0.00910072 3.30236 0.000580755 3.89362C0.00567612 4.34877 0.0752353 4.8009 0.207184 5.23654C0.510566 6.21605 0.985875 7.13375 1.61087 7.94669C1.61087 7.94669 2.61958 9.35038 3.12394 9.92765C4.51085 11.6088 6.27972 12.9339 8.28295 13.7924C10.5799 14.6917 11.5461 14.8922 12.1537 14.8922C12.4456 14.8634 12.7357 14.8188 13.0227 14.7585C13.7215 14.6978 15.3925 13.8288 15.745 12.8505C16.0039 12.2385 16.0676 11.5616 15.9273 10.9121Z" fill="#D8A3A3"/>
</svg>
